# xmcd
#
# Track frame offsets: 
#        300
#        17896
#        34059
#        48967
#        86061
#        99069
#        119607
#        145613
#        159613
#        174526
#        196562
#        217966
#        232717
#        259916
#
# Disc length: 3650 seconds
#
# Revision: 0
# Processed by: cddbd v1.5.2PL0 Copyright (c) Steve Scherf et al.
# Submitted via: ExactAudioCopy v1.0b1
#
DISCID=ae0e3e0e
DTITLE=Smokin' Joe Kubek and Bnois King - Blood Brothers
DYEAR=2008
DGENRE=Texas Blues
TTITLE0=My Dog's Still Walkin'
TTITLE1=Don't Lose My Number
TTITLE2=Flamethrower
TTITLE3=Stop Drinking
TTITLE4=Must Be Karma
TTITLE5=Freezer Burn
TTITLE6=Coleman Avenue
TTITLE7=Midlife Crisis, Midnight Fligh
TTITLE8=Bumpy Ride
TTITLE9=That Ring Don't Mean A Thing
TTITLE10=Cold Folks Boogie
TTITLE11=Out On A Limb
TTITLE12=The Pleasure Was All Mine
TTITLE13=Troubled Dreams
EXTD=
EXTT0=
EXTT1=
EXTT2=
EXTT3=
EXTT4=
EXTT5=
EXTT6=
EXTT7=
EXTT8=
EXTT9=
EXTT10=
EXTT11=
EXTT12=
EXTT13=
PLAYORDER=
